<?xml version="1.0" encoding="UTF-8"?><svg id="a" xmlns="http://www.w3.org/2000/svg" viewBox="0 0 446.11 435.71"><path d="m446.11,46.55c-29.68-8.21-69.98-12.57-106.57,6.49-58.26,30.38-79.69,70.71-77.62,109.05,5.11,94.55,71.11,150.53,157.94,155.53,9.39.54,18.12.36,26.24-.42V46.55Z" style="fill:#ddf4ec; fill-rule:evenodd;"/><path d="m446.11,315.85C384.91,182.93,302.28,23.48,283.01,8.79c-3.31-2.52-157.6,55.86-164.19,65.86-8.3,12.67,79.87,227.77,135.7,361.05h191.58v-119.86Z" style="fill:#d7eae1; fill-rule:evenodd;"/><path d="m446.11,174.11c-88.65-38.35-187.22-29.38-291.25,35.13-54.87,34.02-117.26,110.33-139.18,176.72-5.29,16.02-6.1,33.26-2.96,49.75h219.64c13.25-15.18,26.52-30.05,41.94-42.01,49.71-38.48,111.49-60.29,171.82-52.82v-166.77Z" style="fill:#ade3d1; fill-rule:evenodd;"/></svg>