<?xml version="1.0" encoding="UTF-8"?><svg id="a" xmlns="http://www.w3.org/2000/svg" viewBox="0 0 445.13 404.74"><path d="m36.89,9.17c-3.6,3.6-22.08,265.21-18.48,272.48,3.97,7.93,205.9-2.58,214.56-11.24,9.93-9.93,3.78-255.5-.66-259.94-.62-.61-189.99-6.72-195.42-1.31Z" style="fill:#d7eae1; fill-rule:evenodd;"/><path d="m169.77,175.32c-3.92-11.72-97.19-78.92-169.77-119.35v295.96c22.11,15.12,38.95,24.38,45.73,23.77,28.02-2.51,127.52-189.86,124.03-200.38Z" style="fill:#c0dacd; fill-rule:evenodd;"/><path d="m300.06,404.74c5.53-11.64,9.92-24.19,12.98-37.67C355.69,179.46,178.46,109.03,153.17,105.64c-61.49-8.29-113.16,5.31-153.17,30.31v268.79h300.06Z" style="fill:#ddf4e8; fill-rule:evenodd;"/><path d="m376.97,404.74c.65-1.49,1.27-2.94,1.85-4.29,1.2-2.8,2.26-5.31,3.06-7.05,1.6-3.53.04-7.67-3.53-9.28-3.53-1.6-7.68-.04-9.28,3.49-1.02,2.29-2.04,4.65-3.2,7.31-1.25,2.91-2.67,6.23-4.26,9.81h15.35Z" style="fill:#ade3bf;"/><path d="m404.4,301.4c3.49,1.71,7.71.29,9.43-3.2,4.66-9.42,8.55-18.44,11.53-25.39,1.24-2.83,2.29-5.31,3.06-7.05,1.6-3.53.04-7.71-3.49-9.31-3.53-1.6-7.71,0-9.28,3.53-1.02,2.25-2.04,4.61-3.2,7.31-2.84,6.62-6.55,15.2-11.24,24.66-1.71,3.49-.29,7.71,3.2,9.45Z" style="fill:#ade3bf;"/><path d="m337.64,354.64c3.45,1.74,7.71.29,9.42-3.16,4.66-9.42,8.55-18.44,11.53-25.42,1.2-2.84,2.3-5.31,3.06-7.05,1.6-3.53.04-7.68-3.49-9.28-3.53-1.6-7.71-.04-9.32,3.49-1.02,2.26-2.04,4.62-3.16,7.31-2.84,6.61-6.55,15.2-11.24,24.69-1.71,3.45-.29,7.71,3.2,9.42Z" style="fill:#ade3bf;"/><path d="m433,338.6c-3.53-1.6-7.68,0-9.28,3.53-1.02,2.26-2.04,4.62-3.2,7.31-2.84,6.61-6.51,15.2-11.21,24.65-1.74,3.49-.29,7.71,3.17,9.46,3.49,1.71,7.71.29,9.46-3.2,4.66-9.42,8.52-18.44,11.54-25.38,1.2-2.84,2.26-5.31,3.06-7.06,1.6-3.53.04-7.71-3.53-9.31Z" style="fill:#ade3bf;"/><path d="m262.07,387.07c3.49,1.71,7.71.29,9.43-3.16,4.69-9.46,8.55-18.47,11.53-25.42,1.24-2.84,2.29-5.31,3.09-7.05,1.6-3.53,0-7.71-3.53-9.31-3.53-1.56-7.68,0-9.28,3.53-1.02,2.26-2.04,4.62-3.2,7.31-2.84,6.62-6.55,15.2-11.2,24.69-1.75,3.45-.33,7.67,3.16,9.42Z" style="fill:#ade3bf;"/><path d="m290.7,305.8c3.46,1.71,7.68.29,9.42-3.2,4.66-9.42,8.55-18.44,11.54-25.39,1.2-2.84,2.29-5.34,3.06-7.05,1.6-3.53.04-7.71-3.49-9.31s-7.71,0-9.31,3.53c-1.02,2.26-2.04,4.62-3.17,7.28-2.84,6.66-6.55,15.23-11.24,24.69-1.71,3.49-.29,7.71,3.2,9.45Z" style="fill:#ade3bf;"/></svg>