<svg width="400" height="402" viewBox="0 0 400 402" fill="none" xmlns="http://www.w3.org/2000/svg">
<path d="M400 202C400 312.457 310.457 402 200 402C89.5431 402 0 312.457 0 202C0 91.5431 89.5431 2 200 2C310.457 2 400 91.5431 400 202Z" fill="white" fill-opacity="0.92"/>
<path d="M190.996 102H208.166C227.115 102 243.044 116.243 243.793 134.897C244.058 141.52 244.1 147.676 243.731 152.129C243.544 154.386 243.265 156.009 242.942 156.992C242.941 156.995 242.94 156.997 242.939 157H242.912H242.77H242.629H242.487H242.345H242.204H242.062H241.921H241.779H241.638H241.497H241.356H241.215H241.074H240.933H240.793H240.652H240.512H240.371H240.231H240.091H239.951H239.811H239.671H239.531H239.391H239.252H239.112H238.973H238.834H238.694H238.555H238.416H238.278H238.139H238H237.862H237.723H237.585H237.447H237.309H237.171H237.033H236.895H236.757H236.62H236.483H236.345H236.208H236.071H235.934H235.797H235.661H235.524H235.388H235.252H235.115H234.979H234.843H234.708H234.572H234.437H234.301H234.166H234.031H233.896H233.761H233.626H233.492H233.357H233.223H233.089H232.955H232.821H232.687H232.553H232.42H232.286H232.153H232.02H231.887H231.755H231.622H231.489H231.357H231.225H231.093H230.961H230.829H230.698H230.566H230.435H230.304H230.173H230.042H229.912H229.781H229.651H229.521H229.391H229.261H229.131H229.002H228.872H228.743H228.614H228.485H228.356H228.228H228.1H227.971H227.843H227.715H227.588H227.46H227.333H227.206H227.079H226.952H226.825H226.699H226.573H226.446H226.32H226.195H226.069H225.944H225.819H225.694H225.569H225.444H225.32H225.195H225.071H224.947H224.824H224.7H224.577H224.453H224.331H224.208H224.085H223.963H223.841H223.719H223.597H223.475H223.354H223.233H223.112H222.991H222.87H222.75H222.63H222.51H222.39H222.27H222.151H222.032H221.913H221.794H221.675H221.557H221.439H221.321H221.203H221.086H220.968H220.851H220.735H220.618H220.501H220.385H220.269H220.154H220.038H219.923H219.808H219.693H219.578H219.464H219.349H219.235H219.122H219.008H218.895H218.782H218.669H218.556H218.444H218.332H218.22H218.108H217.997H217.885H217.774H217.664H217.553H217.443H217.333H217.223H217.114H217.004H216.895H216.786H216.678H216.569H216.461H216.354H216.246H216.139H216.032H215.925H215.818H215.712H215.606H215.5H215.394H215.289H215.184H215.079H214.974H214.87H214.766H214.662H214.559H214.455H214.352H214.25H214.147H214.045H213.943H213.841H213.74H213.639H213.538H213.437H213.337H213.237H213.137H213.037H212.938H212.839H212.74H212.642H212.544H212.446H212.348H212.251H212.154H212.057H211.96H211.864H211.768H211.672H211.577H211.482H211.387H211.293H211.198H211.104H211.011H210.917H210.824H210.731H210.639H210.547H210.455H210.363H210.272H210.181H210.09H210H209.909H209.82H209.73H209.641H209.552H209.463H209.375H209.287H209.199H209.112H209.024H208.938H208.851H208.765H208.679H208.593H208.508H208.423H208.338H208.254H208.17H208.086H208.003H207.92H207.837H207.755H207.672H207.591H207.509H207.428H207.347H207.266H207.186H207.106H207.027H206.948H206.869H206.79H206.712H206.634H206.556H206.479H206.402H206.325H206.249H206.173H206.098H206.022H205.947H205.873H205.798H205.724H205.651H205.578H205.505H205.432H205.36H205.288H205.216H205.145H205.074H205.004H204.934H204.864H204.794H204.725H204.657H204.588H204.52H204.452H204.385H204.318H204.251H204.185H204.119H204.053H203.988H203.923H203.859H203.795H203.731H203.667H203.604H203.542H203.479H203.417H203.356H203.295H203.234H203.173H203.113H203.053H202.994H202.935H202.876H202.818H202.76H202.702H202.645H202.588H202.532H202.476H202.42H202.365H202.31H202.256H202.201H202.148H202.094H202.041H201.989H201.937H201.885H201.833H201.782H201.732H201.681H201.631H201.582H201.533H201.484H201.436H201.388H201.34H201.293H201.246H201.2H201.154H201.109H201.063H201.019H200.974H200.93H200.887H200.844H200.801H200.759H200.717H200.675H200.634H200.593H200.553H200.513H200.474H200.435H200.396H200.358H200.32H200.283H200.246H200.209H200.173H200.137H200.102H200.067H200.032H199.998H199.965H199.932H199.899H199.866H199.834H199.803H199.772H199.741H199.711H199.681H199.652H199.623H199.594H199.566H199.538H199.511H199.484H199.458H199.432H199.407H199.382H199.357H199.333H199.309H199.286H199.263H199.241H199.219H199.197H199.176H199.156H199.135H199.116H199.096H199.078H199.059H199.041H199.024H199.007H198.99H198.974H198.958H198.943H198.928H198.914H198.9H198.887H198.874H198.861H198.849H198.838H198.827H198.816H198.806H198.796H198.787H198.778H198.77H198.762H198.755H198.748H198.742H198.736H198.73H198.725H198.721H198.716H198.713H198.71H198.707H198.705H198.703H198.702H198.701C198.701 157 198.701 157 198.701 160C198.701 157 198.701 157 198.701 157H198.699H198.697H198.694H198.69H198.685H198.68H198.673H198.666H198.657H198.648H198.638H198.627H198.616H198.603H198.59H198.576H198.561H198.545H198.528H198.511H198.492H198.473H198.453H198.433H198.411H198.389H198.366H198.342H198.317H198.291H198.265H198.238H198.21H198.181H198.152H198.122H198.091H198.059H198.027H197.993H197.959H197.925H197.889H197.853H197.816H197.778H197.74H197.7H197.661H197.62H197.579H197.536H197.494H197.45H197.406H197.361H197.315H197.269H197.222H197.174H197.126H197.077H197.027H196.976H196.925H196.873H196.821H196.768H196.714H196.66H196.604H196.549H196.492H196.435H196.377H196.319H196.26H196.2H196.14H196.079H196.018H195.955H195.893H195.829H195.765H195.701H195.635H195.57H195.503H195.436H195.368H195.3H195.231H195.162H195.092H195.022H194.95H194.879H194.806H194.734H194.66H194.586H194.512H194.437H194.361H194.285H194.208H194.131H194.053H193.975H193.896H193.817H193.737H193.657H193.576H193.494H193.412H193.33H193.247H193.164H193.08H192.995H192.91H192.825H192.739H192.653H192.566H192.479H192.391H192.302H192.214H192.125H192.035H191.945H191.854H191.763H191.672H191.58H191.488H191.395H191.302H191.208H191.114H191.019H190.925H190.829H190.733H190.637H190.541H190.444H190.346H190.249H190.151H190.052H189.953H189.854H189.754H189.654H189.554H189.453H189.352H189.25H189.148H189.046H188.943H188.84H188.737H188.633H188.529H188.425H188.32H188.215H188.11H188.004H187.898H187.792H187.685H187.578H187.471H187.363H187.255H187.147H187.039H186.93H186.821H186.712H186.602H186.492H186.382H186.271H186.161H186.05H185.938H185.827H185.715H185.603H185.491H185.378H185.265H185.152H185.039H184.925H184.811H184.697H184.583H184.469H184.354H184.239H184.124H184.009H183.893H183.778H183.662H183.546H183.429H183.313H183.196H183.079H182.962H182.845H182.727H182.61H182.492H182.374H182.256H182.138H182.019H181.901H181.782H181.663H181.544H181.425H181.306H181.186H181.067H180.947H180.827H180.707H180.587H180.467H180.347H180.227H180.106H179.986H179.865H179.744H179.623H179.502H179.381H179.26H179.139H179.018H178.896H178.775H178.653H178.532H178.41H178.289H178.167H178.045H177.923H177.801H177.68H177.558H177.436H177.314H177.192H177.07H176.947H176.825H176.703H176.581H176.459H176.337H176.215H176.093H175.97H175.848H175.726H175.604H175.482H175.36H175.238H175.116H174.994H174.872H174.75H174.628H174.506H174.385H174.263H174.141H174.019H173.898H173.776H173.655H173.534H173.412H173.291H173.17H173.049H172.928H172.807H172.686H172.565H172.445H172.324H172.204H172.084H171.963H171.843H171.723H171.603H171.484H171.364H171.245H171.125H171.006H170.887H170.768H170.649H170.531H170.412H170.294H170.176H170.058H169.94H169.822H169.705H169.588H169.47H169.354H169.237H169.12H169.004H168.888H168.772H168.656H168.54H168.425H168.31H168.195H168.08H167.965H167.851H167.737H167.623H167.509H167.396H167.283H167.17H167.057H166.945H166.833H166.721H166.609H166.498H166.387H166.276H166.165H166.055H165.945H165.835H165.726H165.617H165.508H165.399H165.291H165.183H165.075H164.968H164.861H164.754H164.647H164.541H164.435H164.33H164.225H164.12H164.016H163.911H163.808H163.704H163.601H163.498H163.396H163.294H163.192H163.091H162.99H162.889H162.789H162.689H162.59H162.491H162.392H162.294H162.196H162.098H162.001H161.904H161.808H161.712H161.617H161.522H161.427H161.333H161.239H161.146H161.053H160.96H160.868H160.776H160.685H160.595H160.504H160.414H160.325H160.236H160.148H160.06H159.972H159.885H159.799H159.713H159.627H159.542H159.457H159.373H159.29H159.206H159.124H159.042H158.96H158.879H158.798H158.718H158.639H158.56H158.481H158.403H158.326H158.249H158.173H158.097H158.022H157.947H157.873H157.799H157.726H157.654H157.582H157.51H157.44H157.369H157.3H157.231H157.162H157.095H157.027H156.961H156.895H156.829H156.764H156.7H156.636H156.573H156.511H156.449H156.388H156.327H156.268H156.208H156.15H156.092H156.034H155.978H155.922H155.866H155.864C155.609 156.005 155.392 154.466 155.242 152.398C154.926 148.053 154.946 142.046 155.151 135.558C155.751 116.616 171.8 102 190.996 102Z" stroke="black" stroke-width="6"/>
<g filter="url(#filter0_d_1_24)">
<path d="M155 157H245C259.912 157 272 169.088 272 184V261C272 275.912 259.912 288 245 288H155C140.088 288 128 275.912 128 261V184C128 169.088 140.088 157 155 157Z" stroke="black" stroke-width="6" shape-rendering="crispEdges"/>
</g>
<g filter="url(#filter1_d_1_24)">
<path fill-rule="evenodd" clip-rule="evenodd" d="M245 155H155C138.984 155 126 167.984 126 184V261C126 277.016 138.984 290 155 290H245C261.016 290 274 277.016 274 261V184C274 167.984 261.016 155 245 155ZM155 154C138.431 154 125 167.431 125 184V261C125 277.569 138.431 291 155 291H245C261.569 291 275 277.569 275 261V184C275 167.431 261.569 154 245 154H155Z" fill="black"/>
</g>
<g filter="url(#filter2_b_1_24)">
<circle cx="200" cy="237" r="14" fill="black"/>
</g>
<g filter="url(#filter3_d_1_24)">
<path d="M210 252.462C210 263 208.421 269 200 269C191.579 269 190 262.483 190 252.462C190 229.5 194.477 243.939 200 243.939C205.523 243.939 210 228.644 210 252.462Z" fill="#1E1E1E"/>
<path d="M210 252.462C210 263 208.421 269 200 269C191.579 269 190 262.483 190 252.462C190 229.5 194.477 243.939 200 243.939C205.523 243.939 210 228.644 210 252.462Z" fill="black"/>
</g>
<circle cx="200" cy="236.5" r="10.5" fill="white"/>
<path d="M207 251.225C207 259.385 207 266 200 266C193 266 193 259.385 193 251.225C193 235.107 196.134 231 200 231C203.866 231 207 234 207 251.225Z" fill="white" fill-opacity="0.92"/>
<path d="M207 251.225C207 259.385 207 266 200 266C193 266 193 259.385 193 251.225C193 235.107 196.134 231 200 231C203.866 231 207 234 207 251.225Z" fill="white" fill-opacity="0.92"/>
<path d="M281.677 72.9226C283.291 72.5487 284.297 70.9371 283.923 69.323L277.83 43.0195C277.456 41.4054 275.844 40.3999 274.23 40.7738C272.616 41.1477 271.611 42.7593 271.984 44.3734L277.4 67.7544L254.019 73.1703C252.405 73.5442 251.4 75.1558 251.774 76.7699C252.148 78.384 253.759 79.3894 255.373 79.0155L281.677 72.9226ZM50.9841 203.691C45.5135 150.782 75.7282 101.295 120.992 73.3382C166.191 45.4217 226.013 39.2321 279.412 72.5453L282.588 67.4547C226.987 32.7679 164.696 39.2927 117.839 68.2334C71.0462 97.1343 39.2609 148.647 45.0159 204.309L50.9841 203.691Z" fill="black"/>
<path d="M105.527 318.038C103.891 318.299 102.776 319.837 103.038 321.473L107.297 348.135C107.559 349.771 109.097 350.886 110.733 350.624C112.369 350.363 113.483 348.825 113.222 347.189L109.436 323.489L133.135 319.703C134.771 319.441 135.886 317.903 135.624 316.267C135.363 314.631 133.825 313.517 132.189 313.778L105.527 318.038ZM346.048 230.465C327.472 333.024 204.002 388.297 107.76 318.571L104.24 323.429C203.998 395.703 332.575 338.516 351.952 231.535L346.048 230.465Z" fill="black"/>
<defs>
<filter id="filter0_d_1_24" x="121" y="154" width="158" height="145" filterUnits="userSpaceOnUse" color-interpolation-filters="sRGB">
<feFlood flood-opacity="0" result="BackgroundImageFix"/>
<feColorMatrix in="SourceAlpha" type="matrix" values="0 0 0 0 0 0 0 0 0 0 0 0 0 0 0 0 0 0 127 0" result="hardAlpha"/>
<feOffset dy="4"/>
<feGaussianBlur stdDeviation="2"/>
<feComposite in2="hardAlpha" operator="out"/>
<feColorMatrix type="matrix" values="0 0 0 0 0 0 0 0 0 0 0 0 0 0 0 0 0 0 0.25 0"/>
<feBlend mode="normal" in2="BackgroundImageFix" result="effect1_dropShadow_1_24"/>
<feBlend mode="normal" in="SourceGraphic" in2="effect1_dropShadow_1_24" result="shape"/>
</filter>
<filter id="filter1_d_1_24" x="116" y="149" width="168" height="155" filterUnits="userSpaceOnUse" color-interpolation-filters="sRGB">
<feFlood flood-opacity="0" result="BackgroundImageFix"/>
<feColorMatrix in="SourceAlpha" type="matrix" values="0 0 0 0 0 0 0 0 0 0 0 0 0 0 0 0 0 0 127 0" result="hardAlpha"/>
<feOffset dy="4"/>
<feGaussianBlur stdDeviation="4.5"/>
<feComposite in2="hardAlpha" operator="out"/>
<feColorMatrix type="matrix" values="0 0 0 0 0 0 0 0 0 0 0 0 0 0 0 0 0 0 0.25 0"/>
<feBlend mode="normal" in2="BackgroundImageFix" result="effect1_dropShadow_1_24"/>
<feBlend mode="normal" in="SourceGraphic" in2="effect1_dropShadow_1_24" result="shape"/>
</filter>
<filter id="filter2_b_1_24" x="177" y="214" width="46" height="46" filterUnits="userSpaceOnUse" color-interpolation-filters="sRGB">
<feFlood flood-opacity="0" result="BackgroundImageFix"/>
<feGaussianBlur in="BackgroundImageFix" stdDeviation="4.5"/>
<feComposite in2="SourceAlpha" operator="in" result="effect1_backgroundBlur_1_24"/>
<feBlend mode="normal" in="SourceGraphic" in2="effect1_backgroundBlur_1_24" result="shape"/>
</filter>
<filter id="filter3_d_1_24" x="186" y="239.104" width="28" height="37.8959" filterUnits="userSpaceOnUse" color-interpolation-filters="sRGB">
<feFlood flood-opacity="0" result="BackgroundImageFix"/>
<feColorMatrix in="SourceAlpha" type="matrix" values="0 0 0 0 0 0 0 0 0 0 0 0 0 0 0 0 0 0 127 0" result="hardAlpha"/>
<feOffset dy="4"/>
<feGaussianBlur stdDeviation="2"/>
<feComposite in2="hardAlpha" operator="out"/>
<feColorMatrix type="matrix" values="0 0 0 0 0 0 0 0 0 0 0 0 0 0 0 0 0 0 0.25 0"/>
<feBlend mode="normal" in2="BackgroundImageFix" result="effect1_dropShadow_1_24"/>
<feBlend mode="normal" in="SourceGraphic" in2="effect1_dropShadow_1_24" result="shape"/>
</filter>
</defs>
</svg>
