<svg width="25" height="29" viewBox="0 0 25 29" fill="none" xmlns="http://www.w3.org/2000/svg">
<path d="M0.669643 10.7143H24.3304C24.6987 10.7143 25 11.0156 25 11.3839V25.8929C25 27.3717 23.8002 28.5714 22.3214 28.5714H2.67857C1.19978 28.5714 0 27.3717 0 25.8929V11.3839C0 11.0156 0.301339 10.7143 0.669643 10.7143ZM25 8.25893V6.25C25 4.77121 23.8002 3.57143 22.3214 3.57143H19.6429V0.669643C19.6429 0.301339 19.3415 0 18.9732 0H16.7411C16.3728 0 16.0714 0.301339 16.0714 0.669643V3.57143H8.92857V0.669643C8.92857 0.301339 8.62723 0 8.25893 0H6.02679C5.65848 0 5.35714 0.301339 5.35714 0.669643V3.57143H2.67857C1.19978 3.57143 0 4.77121 0 6.25V8.25893C0 8.62723 0.301339 8.92857 0.669643 8.92857H24.3304C24.6987 8.92857 25 8.62723 25 8.25893Z" fill="url(#paint0_linear_106_239)"/>
<path d="M12.1759 14.3115L11.034 16.6268L8.47915 16.9992C8.02099 17.0657 7.83738 17.6305 8.16963 17.954L10.018 19.7552L9.58083 22.2995C9.50214 22.7594 9.98652 23.1039 10.3922 22.8888L12.6778 21.6875L14.9633 22.8888C15.369 23.1022 15.8534 22.7594 15.7747 22.2995L15.3375 19.7552L17.1859 17.954C17.5181 17.6305 17.3345 17.0657 16.8764 16.9992L14.3215 16.6268L13.1796 14.3115C12.975 13.8988 12.3822 13.8936 12.1759 14.3115Z" fill="white"/>
<defs>
<linearGradient id="paint0_linear_106_239" x1="12.5" y1="0" x2="12.5" y2="28.5714" gradientUnits="userSpaceOnUse">
<stop stop-color="#FF2626"/>
<stop offset="0.541667" stop-color="#FFA800"/>
<stop offset="1" stop-color="#34D1DB"/>
</linearGradient>
</defs>
</svg>
