<?xml version="1.0" encoding="UTF-8"?><svg id="a" xmlns="http://www.w3.org/2000/svg" xmlns:xlink="http://www.w3.org/1999/xlink" viewBox="0 0 217 94"><defs><linearGradient id="b" x1="-403.35" y1="2700.62" x2="-565.23" y2="2662.61" gradientTransform="translate(539.06 2742.36) scale(1 -1)" gradientUnits="userSpaceOnUse"><stop offset="0" stop-color="#34d1db"/><stop offset=".52" stop-color="#ffa800"/><stop offset="1" stop-color="red"/></linearGradient></defs><path d="m215.07,41.58l-4.41,4.41c-.45.45-1.18.45-1.63,0l-10.62-10.62c-.45-.45-.45-1.18,0-1.63l4.41-4.41c1.79-1.79,4.7-1.79,6.5,0l5.75,5.75c1.8,1.79,1.8,4.7,0,6.5Zm-20.45-4.05l-25.13,25.13-2.03,11.63c-.28,1.57,1.09,2.93,2.66,2.66l11.63-2.04,25.13-25.13c.45-.45.45-1.18,0-1.63l-10.62-10.62c-.46-.45-1.19-.45-1.64,0Zm-15.32,22.98c-.53-.53-.53-1.37,0-1.9l14.74-14.74c.53-.53,1.37-.53,1.9,0,.53.53.53,1.37,0,1.9l-14.74,14.74c-.53.53-1.37.53-1.9,0Zm-3.29,8.49h5v3.78l-6.72,1.18-3.24-3.24,1.18-6.72h3.78v5Z" style="fill:#ffa800;"/><path d="m90.18,36.1c.64,0,.96.73.96,2.18,0,3.03-1.41,5.97-4.22,8.83-2.82,2.82-6.25,4.25-10.3,4.29-1.79,0-3.5-.34-5.12-1.02s-3.16-1.45-4.61-2.3l-.26.19c-2.52,2.69-5.85,4.03-9.98,4.03-2.65,0-4.59-.66-5.82-1.98s-1.86-3.07-1.86-5.25.79-3.8,2.37-4.86c1.62-1.11,3.69-1.66,6.21-1.66s4.93.3,7.23.9c1.45-2.52,2.88-5.4,4.29-8.64-2.18.21-4.27.47-6.27.77-2.01.26-3.63.38-4.86.38-.55,0-.83-.21-.83-.64,0-1.58,1.34-3.01,4.03-4.29,2.69-1.32,6.12-2.28,10.3-2.88.73-2.26,1.34-4.42,1.86-6.46.55-2.05,1.13-4.03,1.73-5.95-1.92-.64-3.67-.96-5.25-.96-2.69,0-5.63.51-8.83,1.54-3.16,1.02-5.03,1.56-5.63,1.6-1.28,0-1.92-.47-1.92-1.41,0-1.41,1.71-3.05,5.12-4.93,3.71-1.96,7.81-2.97,12.29-3.01,7.17,0,11.84,1.09,14.02,3.26.6.6.9,1.3.9,2.11,0,3.16-1.34,7.85-4.03,14.08h3.71c.94,0,1.41.43,1.41,1.28,0,.26-.11.7-.32,1.34-.21.64-.41,1.3-.58,1.98-.34,1.41-1.07,2.11-2.18,2.11-.9,0-2.58-.11-5.06-.32-2.39,4.65-4.74,8.62-7.04,11.9,1.24.64,2.47,1.19,3.71,1.66,1.24.47,2.56.7,3.97.7s2.62-.45,3.65-1.34c1.07-.9,2.05-1.88,2.94-2.94.94-1.07,1.77-2.05,2.5-2.94.73-.9,1.32-1.34,1.79-1.34Zm-28.99,8.35c-1.45-.73-2.69-1.09-3.71-1.09-.6,0-1.13.17-1.6.51-.47.3-.7.77-.7,1.41s.23,1.11.7,1.41c.47.26.96.38,1.47.38.94,0,2.22-.87,3.84-2.62Zm41.96-.45c3.33,0,6.55-1.32,9.66-3.97,1.15-.98,2.09-1.88,2.82-2.69.73-.85,1.28-1.28,1.66-1.28.6,0,.9.6.9,1.79s-.32,2.54-.96,4.03c-.64,1.45-1.71,2.88-3.2,4.29-3.67,3.46-8.7,5.18-15.1,5.18-5.08,0-8.53-1.83-10.37-5.5-.64-1.28-.96-3.11-.96-5.5s.47-4.86,1.41-7.42c.94-2.6,2.18-4.84,3.71-6.72,1.58-1.88,3.39-3.33,5.44-4.35,2.05-1.07,4.22-1.6,6.53-1.6s4.14.58,5.38,1.73c1.28,1.15,1.92,2.65,1.92,4.48s-.47,3.35-1.41,4.54c-.9,1.15-2.07,2.13-3.52,2.94-1.45.77-3.07,1.47-4.86,2.11-1.75.6-3.48,1.28-5.18,2.05v1.6c.04,1.54.68,2.62,1.92,3.26,1.24.64,2.64.98,4.22,1.02ZM118.35.35c2,0,3.01.34,3.01,1.02,0,.47-1.32,2.75-3.97,6.85-3.24,5.03-7.51,7.55-12.8,7.55-1.71,0-2.56-.41-2.56-1.22,0-.73.64-1.28,1.92-1.66.26-.09.77-.21,1.54-.38s1.62-.64,2.56-1.41c.98-.81,1.81-1.73,2.5-2.75.72-1.02,1.34-2.11,1.86-3.26.56-1.15,1.11-2.24,1.66-3.26.26-.51.81-.87,1.66-1.09.9-.26,1.77-.38,2.62-.38Zm-16.58,25.6c-2.22,0-3.75,2.58-4.61,7.74.9-.6,1.73-1.13,2.5-1.6.81-.47,1.51-.92,2.11-1.34,1.28-.94,1.94-2.01,1.98-3.2,0-1.07-.66-1.6-1.98-1.6ZM-.04,81.91c0-.51.34-.77,1.02-.77s2.79.47,6.34,1.41c.81-7,3.09-14.59,6.85-22.78,1.32-2.99,2.9-4.48,4.74-4.48.34,0,.66.36.96,1.09.34.73.51,1.62.51,2.69,0,1.28-.68,4.8-2.05,10.56-1.32,5.76-2.2,10.77-2.62,15.04,2.82.64,5.29.96,7.42.96s4.16-.55,5.95-1.66c1.79-1.15,3.33-2.62,4.61-4.42,2.65-3.8,3.97-8.36,3.97-13.7-.04-9.86-3.97-14.78-11.78-14.78-2.77.04-7.68,1.28-14.72,3.71-1.37.47-2.56.7-3.58.7s-1.54-.3-1.54-.9c0-.81.6-1.77,1.79-2.88,1.19-1.11,2.73-2.18,4.61-3.2,4.61-2.47,9.09-3.71,13.44-3.71,5.97,0,10.88,1.6,14.72,4.8,4.52,3.8,6.76,9.56,6.72,17.28,0,3.29-.51,6.53-1.54,9.73-1.02,3.2-2.58,6.06-4.67,8.58-2.09,2.47-4.74,4.48-7.94,6.02-3.2,1.54-6.98,2.3-11.33,2.3-1.75,0-3.97-.38-6.66-1.15-.3.81-1.05,1.22-2.24,1.22-2.22,0-3.73-.36-4.54-1.09-.77-.77-1.22-2.01-1.34-3.71-2.05-1.15-3.75-2.35-5.12-3.58-1.32-1.24-1.98-2.33-1.98-3.26Zm59.55.32l.38,7.81c0,1.02-.53,1.94-1.6,2.75-1.07.81-2.52,1.22-4.35,1.22-1.07,0-1.81-.55-2.24-1.66-.38-1.11-.58-2.73-.58-4.86,0-4.48.21-7.98.64-10.5.47-2.56,1.37-5.14,2.69-7.74-1.96-1.88-2.94-3.5-2.94-4.86,0-2.86,1.54-4.29,4.61-4.29,1.58,0,2.97.83,4.16,2.5.85,1.15,1.47,2.5,1.86,4.03.6.21,1.34.32,2.24.32,1.24,0,2.67-.41,4.29-1.22l1.66-.83c.51-.26.96-.38,1.34-.38,1.24,0,2.47,1.81,3.71,5.44-.38,1.66-.81,3.26-1.28,4.8-.43,1.54-.94,3.39-1.54,5.57-.6,2.18-.92,3.65-.96,4.42,0,.73.23,1.09.7,1.09.64,0,1.43-.41,2.37-1.22.94-.81,1.88-1.69,2.82-2.62.94-.98,1.79-1.88,2.56-2.69.81-.81,1.37-1.22,1.66-1.22.6,0,.9.73.9,2.18,0,2.94-1.3,5.85-3.9,8.7-2.56,2.86-5.5,4.27-8.83,4.22-1.96,0-3.43-.79-4.42-2.37-.98-1.58-1.49-3.5-1.54-5.76,0-4.48,1-8.73,3.01-12.74-.94.38-2.01.58-3.2.58s-1.98-.04-2.5-.13c-.38,1.62-.77,3.26-1.15,4.93-.38,1.62-.58,3.14-.58,4.54Zm59.2-4.35c.77,0,1.15.98,1.15,2.94,0,1.07-.45,2.37-1.34,3.9-.9,1.49-2.07,2.88-3.52,4.16-1.41,1.24-2.99,2.26-4.74,3.07-1.75.81-3.46,1.22-5.12,1.22-2.26,0-3.78-1.98-4.54-5.95-1.11,1.83-2.56,3.35-4.35,4.54-1.79,1.15-4.2,1.73-7.23,1.73s-5.4-.94-7.23-2.82c-1.83-1.88-2.73-4.16-2.69-6.85,0-7.25,2.41-12.97,7.23-17.15,2.05-1.75,3.95-2.9,5.7-3.46,1.79-.55,3.67-.83,5.63-.83s3.56.34,4.8,1.02c.6-1.24,1.28-1.86,2.05-1.86,1.49,0,2.9.66,4.22,1.98,1.37,1.28,2.05,2.5,2.05,3.65-.6,1.41-1.47,3.09-2.62,5.06-.34,1.96-.51,4.71-.51,8.26s.45,5.31,1.34,5.31c1.11,0,3.8-2.22,8.06-6.66.77-.85,1.32-1.28,1.66-1.28Zm-30.21,3.84c0,3.29,1.22,4.93,3.65,4.93,2.6-.04,4.76-1.43,6.46-4.16.6-.94,1.09-2.09,1.47-3.46,0-4.78.43-8.87,1.28-12.29-3.46.68-6.46,2.35-9.02,4.99-2.56,2.65-3.84,5.97-3.84,9.98Zm38.27-16.9c0,2.86-.51,6.1-1.54,9.73.09,1.37.13,2.69.13,3.97.08,2.73.43,4.61,1.02,5.63.43.55.98.83,1.66.83,1.32,0,2.96-.94,4.93-2.82-1.49-3.54-2.24-6.74-2.24-9.6,0-5.85,2.75-8.77,8.26-8.77,1.88,0,3.43.55,4.67,1.66,1.28,1.07,1.92,2.41,1.92,4.03,0,3.41-1.9,7.51-5.7,12.29,1.58,1.88,2.86,2.97,3.84,3.26,1.41,0,3.52-2.6,6.34-7.81-.51-1.92-.77-3.71-.77-5.38,0-3.03.47-5.25,1.41-6.66,1.15-1.79,3.05-2.69,5.7-2.69s4.2,1.09,4.54,3.26c.08.64.13,1.32.13,2.05,0,2.73-1.51,6.51-4.54,11.33,1.07,1.54,2.07,2.45,3.01,2.75,1.96,0,3.63-.66,4.99-1.98.51-.47.94-.9,1.28-1.28.38-.43.77-.64,1.15-.64.6,0,.9.7.9,2.11,0,2.6-.77,4.52-2.3,5.76-1.54,1.24-3.54,1.86-6.02,1.86s-4.63-1.19-6.46-3.58c-2.22,2.9-4.05,4.93-5.5,6.08-2.65,2.18-4.71,3.26-6.21,3.26-.73,0-1.66-.6-2.82-1.79-1.11-1.24-2.22-2.84-3.33-4.8-2.05,1.92-4.08,3.5-6.08,4.74-2.01,1.24-3.69,1.86-5.06,1.86-2.48,0-4.57-5.38-6.27-16.13-.6-3.67-.9-6.19-.9-7.55.09-2.82.47-4.78,1.15-5.89.94-1.37,2.77-2.05,5.5-2.05,1.02,0,1.81.32,2.37.96.55.6.83,1.26.83,1.98Zm10.94,11.52c1.41-2.18,2.11-3.9,2.11-5.18s-.45-1.98-1.34-1.98c-.6,0-.98.34-1.15,1.02-.13.64-.19,1.49-.19,2.56s.19,2.26.58,3.58Z" style="fill:url(#b);"/></svg>