<svg width="63" height="50" viewBox="0 0 63 50" fill="none" xmlns="http://www.w3.org/2000/svg">
<path d="M59.375 0H15.625C14.7962 0 14.0013 0.32924 13.4153 0.915291C12.8292 1.50134 12.5 2.2962 12.5 3.125V12.5H28.125V6.25H46.875V37.5H59.375C60.2038 37.5 60.9987 37.1708 61.5847 36.5847C62.1708 35.9987 62.5 35.2038 62.5 34.375V3.125C62.5 2.2962 62.1708 1.50134 61.5847 0.915291C60.9987 0.32924 60.2038 0 59.375 0ZM22.6562 10.0586C22.6562 10.2917 22.5637 10.5152 22.3988 10.6801C22.234 10.8449 22.0104 10.9375 21.7773 10.9375H18.8477C18.6146 10.9375 18.391 10.8449 18.2262 10.6801C18.0613 10.5152 17.9688 10.2917 17.9688 10.0586V7.12891C17.9688 6.89581 18.0613 6.67225 18.2262 6.50743C18.391 6.3426 18.6146 6.25 18.8477 6.25H21.7773C22.0104 6.25 22.234 6.3426 22.3988 6.50743C22.5637 6.67225 22.6562 6.89581 22.6562 7.12891V10.0586ZM57.0312 30.3711C57.0312 30.6042 56.9386 30.8277 56.7738 30.9926C56.609 31.1574 56.3854 31.25 56.1523 31.25H53.2227C52.9896 31.25 52.766 31.1574 52.6012 30.9926C52.4364 30.8277 52.3438 30.6042 52.3438 30.3711V27.4414C52.3438 27.2083 52.4364 26.9848 52.6012 26.8199C52.766 26.6551 52.9896 26.5625 53.2227 26.5625H56.1523C56.3854 26.5625 56.609 26.6551 56.7738 26.8199C56.9386 26.9848 57.0312 27.2083 57.0312 27.4414V30.3711ZM57.0312 20.2148C57.0312 20.4479 56.9386 20.6715 56.7738 20.8363C56.609 21.0012 56.3854 21.0938 56.1523 21.0938H53.2227C52.9896 21.0938 52.766 21.0012 52.6012 20.8363C52.4364 20.6715 52.3438 20.4479 52.3438 20.2148V17.2852C52.3438 17.0521 52.4364 16.8285 52.6012 16.6637C52.766 16.4988 52.9896 16.4062 53.2227 16.4062H56.1523C56.3854 16.4062 56.609 16.4988 56.7738 16.6637C56.9386 16.8285 57.0312 17.0521 57.0312 17.2852V20.2148ZM57.0312 10.0586C57.0312 10.2917 56.9386 10.5152 56.7738 10.6801C56.609 10.8449 56.3854 10.9375 56.1523 10.9375H53.2227C52.9896 10.9375 52.766 10.8449 52.6012 10.6801C52.4364 10.5152 52.3438 10.2917 52.3438 10.0586V7.12891C52.3438 6.89581 52.4364 6.67225 52.6012 6.50743C52.766 6.3426 52.9896 6.25 53.2227 6.25H56.1523C56.3854 6.25 56.609 6.3426 56.7738 6.50743C56.9386 6.67225 57.0312 6.89581 57.0312 7.12891V10.0586ZM40.625 15.625H3.125C2.2962 15.625 1.50134 15.9542 0.915291 16.5403C0.32924 17.1263 0 17.9212 0 18.75L0 46.875C0 47.7038 0.32924 48.4987 0.915291 49.0847C1.50134 49.6708 2.2962 50 3.125 50H40.625C41.4538 50 42.2487 49.6708 42.8347 49.0847C43.4208 48.4987 43.75 47.7038 43.75 46.875V18.75C43.75 17.9212 43.4208 17.1263 42.8347 16.5403C42.2487 15.9542 41.4538 15.625 40.625 15.625ZM9.375 21.875C9.99307 21.875 10.5973 22.0583 11.1112 22.4017C11.6251 22.745 12.0256 23.2331 12.2621 23.8041C12.4986 24.3751 12.5605 25.0035 12.44 25.6097C12.3194 26.2158 12.0217 26.7727 11.5847 27.2097C11.1477 27.6467 10.5908 27.9444 9.98466 28.065C9.37847 28.1855 8.75013 28.1236 8.17911 27.8871C7.6081 27.6506 7.12004 27.2501 6.77666 26.7362C6.43328 26.2223 6.25 25.6181 6.25 25C6.25 24.1712 6.57924 23.3763 7.16529 22.7903C7.75134 22.2042 8.5462 21.875 9.375 21.875ZM37.5 43.75H6.25V40.625L12.5 34.375L15.625 37.5L28.125 25L37.5 34.375V43.75Z" fill="url(#paint0_linear_115_314)"/>
<defs>
<linearGradient id="paint0_linear_115_314" x1="31.25" y1="0" x2="31.25" y2="50" gradientUnits="userSpaceOnUse">
<stop stop-color="#FF2626"/>
<stop offset="0.510417" stop-color="#FFA800"/>
<stop offset="1" stop-color="#34D1DB"/>
</linearGradient>
</defs>
</svg>
