<?xml version="1.0" encoding="UTF-8"?><svg id="a" xmlns="http://www.w3.org/2000/svg" viewBox="0 0 491.29 492.23"><path d="m218.11,234.61c-20.66-1.3-138.2,143.59-133.08,165.1,5.43,22.77,204.59,97.78,212.27,90.99,2.06-1.75-42.54-253.71-79.19-256.09Z" style="fill:#ddf4ec; fill-rule:evenodd;"/><path d="m357.27,437.53c3.99.14,6.92,5.21,6.46,11.36-.49,6.15-4.08,11-8.13,10.87-4.98-.18-16.17-1.53-25.65-2.65-5.75-.68-10.91-1.3-13.61-1.53-3.99-.32-6.78-5.57-6.2-11.72.54-6.15,4.27-10.87,8.27-10.51,2.56.18,7.91.85,13.97,1.57,9.52,1.13,20.8,2.47,24.89,2.6Zm-27.67-144.4c3.51-2.02,8.63.81,11.5,6.24,2.83,5.44,2.33,11.5-1.17,13.47-4.36,2.52-14.51,7.28-23.18,11.32-5.26,2.47-9.93,4.67-12.35,5.89-3.59,1.84-8.71-1.13-11.45-6.65-2.78-5.53-2.11-11.5,1.48-13.34,2.24-1.12,7.14-3.46,12.67-6.02,8.71-4.09,18.95-8.89,22.5-10.92Zm20.21,69.66c3.77-1.44,8.4,2.11,10.38,7.95,1.98,5.84.54,11.72-3.19,13.16-4.72,1.8-15.49,4.9-24.66,7.59-5.57,1.62-10.55,3.06-13.11,3.86-3.82,1.3-8.44-2.47-10.33-8.35-1.84-5.89-.27-11.68,3.55-12.93,2.43-.77,7.59-2.29,13.43-4,9.26-2.65,20.13-5.79,23.94-7.28Z" style="fill:#c0dacd;"/><path d="m197.41,90.71c-3.8-17.88-12.33-51.48-25.59-90.71H0v97.86c10.8,53.16,11.02,129.28,5.76,206.33-16.8,246.43,135.55,204.08,174.22,109.41,26.46-64.72,45.14-192.63,17.43-322.88Z" style="fill:#e9f5ec; fill-rule:evenodd;"/><path d="m465.17,0h-245.93c-13.58,66.22-25.14,133.3-77.84,122.91C109.81,116.71,76.93,58.99,33.33,0H0v226.74c115.41,26.97,192.08,108.38,251.71,86.96,112.87-40.56,13.65-193.12,93.51-218.55,57.72-18.37,85.88,60.09,130.48,19.49,24.65-22.43,15.69-68.8-10.53-114.65Z" style="fill:#d7eae4; fill-rule:evenodd;"/></svg>