<?xml version="1.0" encoding="UTF-8"?><svg id="a" xmlns="http://www.w3.org/2000/svg" viewBox="0 0 305.3 418.37"><path d="m125.13,198.47c-4.26-2.54-5.64-7.98-3.15-12.25,2.53-4.26,7.98-5.68,12.25-3.15,2.08,1.24,5.13,2.93,8.49,4.87,8.41,4.76,19.28,10.89,30.6,18.08,4.15,2.67,5.35,8.25,2.68,12.4-2.68,4.15-8.21,5.41-12.35,2.73-11.36-7.24-21.71-13.12-29.69-17.63-3.23-1.82-6.08-3.44-8.83-5.05Zm-105.09-1.18c-4.27-2.49-5.68-7.99-3.2-12.26,2.53-4.21,8.03-5.63,12.25-3.15,2.13,1.24,5.13,2.93,8.54,4.87,8.41,4.76,19.28,10.94,30.55,18.13,4.15,2.67,5.41,8.21,2.73,12.35-2.68,4.19-8.21,5.4-12.41,2.72-11.31-7.24-21.72-13.07-29.69-17.63-3.23-1.82-6.08-3.44-8.78-5.05Zm88.7,192.01c-4.26-2.54-5.68-8.04-3.15-12.25,2.48-4.27,7.98-5.68,12.25-3.15,2.08,1.24,5.07,2.93,8.5,4.82,8.41,4.76,19.28,10.94,30.55,18.13,4.19,2.68,5.4,8.21,2.72,12.41-2.67,4.15-8.2,5.35-12.4,2.67-11.31-7.24-21.67-13.07-29.65-17.57-3.23-1.86-6.13-3.49-8.83-5.05Zm-30.58-100.14c-4.27-2.49-5.63-7.98-3.15-12.2,2.54-4.26,7.99-5.68,12.26-3.19,2.08,1.23,5.13,2.93,8.49,4.86,8.41,4.76,19.28,10.94,30.59,18.14,4.15,2.67,5.36,8.2,2.68,12.4-2.67,4.15-8.2,5.35-12.35,2.68-11.36-7.25-21.72-13.07-29.69-17.63-3.23-1.82-6.08-3.44-8.83-5.05Zm-68.37,52.62c-4.21-2.48-5.63-7.98-3.15-12.24,2.54-4.27,8.04-5.63,12.25-3.15,2.08,1.23,5.13,2.93,8.49,4.86,8.41,4.76,19.29,10.89,30.6,18.13,4.15,2.68,5.35,8.2,2.68,12.35-2.63,4.2-8.21,5.41-12.36,2.73-11.36-7.25-21.71-13.13-29.69-17.64-3.23-1.81-6.08-3.44-8.83-5.05Zm187.66,8.63c-4.26-2.54-5.63-8.03-3.15-12.25,2.53-4.26,7.98-5.68,12.25-3.15,2.13,1.24,5.13,2.93,8.54,4.88,8.41,4.76,19.29,10.89,30.55,18.08,4.15,2.67,5.35,8.2,2.68,12.4-2.68,4.15-8.2,5.35-12.35,2.73-11.31-7.24-21.67-13.11-29.65-17.63-3.28-1.82-6.13-3.44-8.88-5.06Zm-22.28-76.48c-4.22-2.48-5.63-7.98-3.15-12.25,2.53-4.21,7.98-5.63,12.25-3.15,2.08,1.24,5.13,2.93,8.49,4.87,8.41,4.76,19.28,10.89,30.59,18.13,4.15,2.68,5.35,8.2,2.68,12.35-2.68,4.2-8.21,5.41-12.35,2.73-11.36-7.24-21.71-13.12-29.69-17.63-3.23-1.82-6.08-3.44-8.83-5.05Z" style="fill:#c0dad0;"/><path d="m102.22.02c-.06,48.93,65.92,70.2,136.24,129.08,34.59,28.93,55.34,56.9,66.83,84.05V.02H102.22Z" style="fill:#ade3cc; fill-rule:evenodd;"/><path d="m174.82-.02c-19.9,24.46-54.43,51.08-72.63,65.94-51.12,41.7-63.39,88.17-58.82,142.18,5.58,66.43,66.29,78.14,90.84,44.16,42.84-59.06,9.88-99.69,74.4-171.05C229.12,58.58,254.17,33.1,273.79-.02h-98.96Z" style="fill:#d7eae1; fill-rule:evenodd;"/></svg>